HIERARCHY
ROOT Hips
{
	OFFSET 62.890800 8.863803 43.568401
	CHANNELS 6 Xposition Yposition Zposition Zrotation Xrotation Yrotation
	JOINT Chest
	{
		OFFSET -0.160400 1.630001 7.806301
		CHANNELS 6 Xposition Yposition Zposition Zrotation Xrotation Yrotation
		JOINT Chest2
		{
			OFFSET 0.000000 0.000000 3.197998
			CHANNELS 6 Xposition Yposition Zposition Zrotation Xrotation Yrotation
			JOINT Neck
			{
				OFFSET 0.000000 0.000001 7.440701
				CHANNELS 6 Xposition Yposition Zposition Zrotation Xrotation Yrotation
				JOINT Head
				{
					OFFSET 0.000000 0.000000 2.173901
					CHANNELS 6 Xposition Yposition Zposition Zrotation Xrotation Yrotation
					End Site
					{
						OFFSET 0.000000 0.000001 10.420303
					}
				}
			}
			JOINT LeftCollar
			{
				OFFSET 2.426399 -1.880099 4.759399
				CHANNELS 6 Xposition Yposition Zposition Zrotation Xrotation Yrotation
				JOINT LeftShoulder
				{
					OFFSET 4.420197 0.000000 0.000000
					CHANNELS 6 Xposition Yposition Zposition Zrotation Xrotation Yrotation
					JOINT LeftElbow
					{
						OFFSET 0.000000 -0.000001 -10.347099
						CHANNELS 6 Xposition Yposition Zposition Zrotation Xrotation Yrotation
						JOINT LeftWrist
						{
							OFFSET 0.000000 -0.000001 -12.496300
							CHANNELS 6 Xposition Yposition Zposition Zrotation Xrotation Yrotation
							End Site
							{
								OFFSET 0.000000 0.000000 -2.173901
							}
						}
					}
				}
			}
			JOINT RightCollar
			{
				OFFSET -2.781502 -1.903799 5.072601
				CHANNELS 6 Xposition Yposition Zposition Zrotation Xrotation Yrotation
				JOINT RightShoulder
				{
					OFFSET -4.012100 0.000000 0.000000
					CHANNELS 6 Xposition Yposition Zposition Zrotation Xrotation Yrotation
					JOINT RightElbow
					{
						OFFSET 0.000000 -0.000001 -10.346600
						CHANNELS 6 Xposition Yposition Zposition Zrotation Xrotation Yrotation
						JOINT RightWrist
						{
							OFFSET 0.000000 -0.000001 -12.562599
							CHANNELS 6 Xposition Yposition Zposition Zrotation Xrotation Yrotation
							End Site
							{
								OFFSET 0.000000 0.000000 -2.173901
							}
						}
					}
				}
			}
		}
	}
	JOINT LeftHip
	{
		OFFSET 2.047997 -0.047200 -2.693199
		CHANNELS 6 Xposition Yposition Zposition Zrotation Xrotation Yrotation
		JOINT LeftKnee
		{
			OFFSET 0.000000 -0.000001 -18.824400
			CHANNELS 6 Xposition Yposition Zposition Zrotation Xrotation Yrotation
			JOINT LeftAnkle
			{
				OFFSET 0.000000 -0.000002 -19.078199
				CHANNELS 6 Xposition Yposition Zposition Zrotation Xrotation Yrotation
				End Site
				{
					OFFSET 0.000000 -9.342100 0.000001
				}
			}
		}
	}
	JOINT RightHip
	{
		OFFSET -2.129898 -0.022300 -2.538300
		CHANNELS 6 Xposition Yposition Zposition Zrotation Xrotation Yrotation
		JOINT RightKnee
		{
			OFFSET 0.000000 -0.000001 -18.644600
			CHANNELS 6 Xposition Yposition Zposition Zrotation Xrotation Yrotation
			JOINT RightAnkle
			{
				OFFSET 0.000000 -0.000002 -18.801399
				CHANNELS 6 Xposition Yposition Zposition Zrotation Xrotation Yrotation
				End Site
				{
					OFFSET 0.000000 -8.914600 0.000001
				}
			}
		}
	}
}
MOTION
Frames: 6
Frame Time: 0.041667
8.903488 -42.836792 38.582844 -323.043304 2.182873 -0.432038 -0.160398 1.629998 7.806304 36.022196 -2.633250 13.153027 0.000010 0.000001 3.197999 -8.294484 0.016163 -0.155902 -0.000006 0.000006 7.440700 -24.592805 -7.204336 9.002896 -0.000006 0.000003 2.173907 5.719868 -8.484378 -6.902649 2.426398 -1.880095 4.759395 -2.626829 6.196877 7.505924 4.420192 0.000000 0.000005 -25.120657 21.307998 -36.621391 -0.000003 0.000002 -10.347096 341.552134 -8.407368 1.770059 -0.000000 0.000000 -12.496302 198.298929 178.352686 156.343071 -2.781500 -1.903796 5.072597 -14.408267 -9.578732 23.864867 -4.012102 0.000001 0.000001 43.584745 -30.655702 145.024000 0.000001 0.000000 -10.346596 -87.596985 -0.588828 -8.914624 -0.000000 -0.000001 -12.562596 937.499198 -165.630298 180.892519 2.047997 -0.047198 -2.693194 -248.167738 -28.389408 46.959381 0.000006 -0.000002 -18.824400 170.651935 161.092498 -199.406512 -0.000006 0.000003 -19.078201 237.244544 23.258468 59.641615 -2.129894 -0.022307 -2.538296 -669.907904 29.975665 -0.846056 0.000002 0.000001 -18.644604 492.747059 154.978645 167.225079 -0.000001 -0.000008 -18.801394 -29.673391 -2.901774 -42.702759
8.895390 -42.859699 38.519444 -322.832989 2.679241 -0.479846 -0.160402 1.629992 7.806304 37.123226 -2.648557 13.339249 0.000006 0.000004 3.198008 -8.368357 -0.050010 -0.151998 -0.000006 0.000001 7.440701 -16.439575 -7.173218 6.608188 -0.000009 -0.000001 2.173908 1.372451 -7.593301 -2.828276 2.426403 -1.880098 4.759397 -2.625425 6.416309 7.616811 4.420192 0.000004 0.000001 -25.142664 21.304292 -36.374705 -0.000005 -0.000002 -10.347093 340.522933 -8.880241 1.765633 -0.000005 -0.000001 -12.496296 197.244566 178.535503 155.384782 -2.781504 -1.903797 5.072607 -13.633893 -9.171315 23.871812 -4.012095 0.000002 -0.000002 44.981997 -30.583586 146.116953 -0.000004 -0.000002 -10.346592 -89.529744 -0.201078 -8.678852 -0.000001 0.000001 -12.562607 942.349179 -165.345397 181.316743 2.047987 -0.047203 -2.693192 -248.710410 -28.688734 47.465163 0.000002 0.000003 -18.824402 170.142334 160.537572 -199.559208 -0.000002 0.000005 -19.078199 238.758114 23.263810 58.956383 -2.129898 -0.022299 -2.538299 -669.735838 29.639514 -0.531254 -0.000001 -0.000001 -18.644606 493.069717 154.552919 166.899607 0.000000 -0.000003 -18.801399 -30.120031 -3.287171 -43.210464
8.915192 -42.879494 38.443745 -321.887773 2.748380 -0.892503 -0.160394 1.630005 7.806309 37.431588 -2.111455 13.521655 -0.000000 0.000003 3.198009 -8.446465 -0.097159 -0.150402 0.000003 0.000000 7.440697 -11.940151 -7.278969 6.099760 0.000000 0.000004 2.173905 -0.375749 -7.138252 -1.042325 2.426407 -1.880101 4.759401 -2.591143 6.609361 7.685230 4.420194 -0.000001 -0.000004 -25.028987 21.232454 -36.145334 0.000006 -0.000001 -10.347098 339.478078 -9.382855 1.727809 0.000005 -0.000002 -12.496298 196.322682 178.735518 154.416261 -2.781495 -1.903801 5.072610 -12.866616 -8.816130 23.817107 -4.012098 0.000000 -0.000003 46.763129 -30.236872 147.065106 -0.000004 0.000001 -10.346593 -88.928278 -0.678523 -7.843099 -0.000001 -0.000006 -12.562611 944.699857 -164.926365 181.494027 2.047999 -0.047189 -2.693195 -249.298735 -28.202754 47.842036 -0.000001 -0.000001 -18.824400 170.000922 160.300332 -199.936904 0.000000 -0.000001 -19.078203 238.706205 23.148377 59.097235 -2.129887 -0.022295 -2.538303 -669.597158 30.023708 -0.655627 0.000010 0.000002 -18.644600 493.255170 154.353355 166.235425 0.000002 -0.000005 -18.801401 -30.873090 -3.892121 -44.120491
8.966583 -42.895405 38.355850 -320.080833 2.317972 -1.639577 -0.160401 1.629992 7.806308 36.834350 -1.002120 13.620985 0.000005 0.000000 3.198003 -8.536166 -0.140892 -0.150682 0.000006 0.000006 7.440703 -9.665816 -7.341024 6.451624 -0.000009 -0.000001 2.173898 -0.733950 -6.652769 -0.448496 2.426406 -1.880097 4.759403 -2.400132 6.725660 7.717387 4.420192 0.000000 0.000004 -25.175522 21.315644 -35.804176 0.000004 -0.000002 -10.347096 338.765143 -9.898850 1.659088 0.000002 -0.000001 -12.496299 195.199498 178.666493 154.577167 -2.781500 -1.903798 5.072606 -12.316408 -8.738609 23.676813 -4.012105 -0.000004 -0.000001 48.996741 -29.438518 147.589350 0.000003 0.000000 -10.346593 -86.743375 -1.839873 -6.386753 -0.000003 -0.000003 -12.562593 945.435441 -164.322481 181.522277 2.047994 -0.047198 -2.693203 -250.051477 -26.918491 48.041915 -0.000001 0.000008 -18.824400 170.198520 160.413153 -200.550460 -0.000001 -0.000001 -19.078199 237.057097 22.911316 60.076541 -2.129892 -0.022306 -2.538296 -669.521534 31.129636 -1.343142 0.000007 0.000004 -18.644604 493.361339 154.398666 165.209148 0.000001 -0.000001 -18.801401 -32.010689 -4.696241 -45.426977
9.012886 -42.906796 38.268143 -318.360691 1.929080 -2.323668 -0.160398 1.630003 7.806304 36.386931 0.071791 13.675248 0.000011 -0.000000 3.197999 -8.479532 -0.153010 -0.196408 -0.000011 0.000001 7.440704 -8.463245 -7.356495 6.896988 -0.000005 -0.000004 2.173907 -0.904294 -6.458728 -0.132240 2.426392 -1.880098 4.759395 -2.356043 6.770870 7.747651 4.420194 0.000000 -0.000008 -25.414178 21.381166 -35.420599 -0.000005 0.000001 -10.347095 338.201734 -10.397658 1.616152 -0.000001 -0.000005 -12.496301 194.284034 178.771391 154.014468 -2.781509 -1.903799 5.072602 -12.259567 -9.111336 23.593222 -4.012092 -0.000001 -0.000001 52.880872 -28.939802 148.211321 0.000003 -0.000004 -10.346588 -83.072777 -3.166212 -4.404663 -0.000003 -0.000012 -12.562597 946.057917 -163.481643 181.559911 2.047996 -0.047203 -2.693201 -250.840883 -25.745319 48.253565 0.000017 -0.000001 -18.824398 170.302120 160.467508 -201.134782 -0.000001 -0.000003 -19.078201 235.706878 22.708574 60.853249 -2.129897 -0.022299 -2.538299 -669.783759 32.084236 -1.847015 -0.000002 0.000004 -18.644604 493.633344 154.388066 164.347397 -0.000003 -0.000003 -18.801399 -33.055264 -5.586295 -46.952845
9.049789 -42.914097 38.184944 -316.954218 1.661826 -2.939965 -0.160405 1.630003 7.806303 36.255542 1.059673 13.741157 0.000004 -0.000002 3.198004 -8.644221 -0.170226 -0.207645 -0.000007 0.000001 7.440703 -7.821954 -7.362263 7.238469 -0.000007 -0.000007 2.173905 -0.881137 -6.277232 -0.072293 2.426400 -1.880099 4.759398 -1.858545 6.664789 7.662039 4.420204 0.000002 0.000008 -26.092766 21.596327 -34.889986 0.000001 -0.000005 -10.347095 337.984562 -10.829836 1.634205 0.000003 -0.000005 -12.496307 193.336646 178.847383 153.610422 -2.781500 -1.903798 5.072603 -11.987431 -9.475756 23.528905 -4.012103 -0.000005 0.000003 56.340175 -28.717407 148.702084 -0.000000 0.000001 -10.346591 -81.690217 -3.989528 -3.141654 -0.000002 -0.000002 -12.562593 948.956977 -162.722632 181.926856 2.047997 -0.047194 -2.693194 -251.636682 -24.812353 48.459004 0.000002 0.000003 -18.824398 170.170393 160.352365 -201.637402 -0.000000 -0.000002 -19.078203 235.093909 22.568733 61.198352 -2.129900 -0.022298 -2.538298 -669.913369 32.830278 -2.217025 0.000005 0.000001 -18.644604 493.773882 154.282089 163.674541 -0.000003 -0.000007 -18.801403 -33.924966 -6.378120 -48.328759
